# xmcd
#
# Track frame offsets: 
#        182
#        8630
#        21840
#        31607
#        45380
#        58880
#        73107
#        86200
#        111380
#        119832
#        136005
#        150455
#        164855
#        178280
#        190805
#        200730
#        215180
#        229272
#        243130
#        250442
#        264312
#        276080
#
# Disc length: 3831 seconds
#
# Revision: 1
# Processed by: cddbd v1.5.2PL0 Copyright (c) Steve Scherf et al.
# Submitted via: ExactAudioCopy v0.95b4
#
DISCID=4a0ef516
DTITLE=Leadbelly - All Time Blues Classics
DYEAR=1996
DGENRE=Blues
TTITLE0=Irene
TTITLE1=Rock Island Line
TTITLE2=Midnight Special
TTITLE3=Pick a ball of cotton
TTITLE4=Grey Goose
TTITLE5=Whoah Back Buck
TTITLE6=Good Morning Blues
TTITLE7=Bourgeois Blues
TTITLE8=On Monday
TTITLE9=Leaving Blues
TTITLE10=Pigmeat
TTITLE11=Black Snake Moan
TTITLE12=See See Rider
TTITLE13=Eagle Rock Rag
TTITLE14=Corn Bread Rough
TTITLE15=Alberta
TTITLE16=Shorty George
TTITLE17=You don't know my name
TTITLE18=Take this hammer
TTITLE19=Alabama bound
TTITLE20=Little Sally Walker
TTITLE21=I have a pretty flower
EXTD=YEAR: 1996
EXTT0=
EXTT1=
EXTT2=
EXTT3=
EXTT4=
EXTT5=
EXTT6=
EXTT7=
EXTT8=
EXTT9=
EXTT10=
EXTT11=
EXTT12=
EXTT13=
EXTT14=
EXTT15=
EXTT16=
EXTT17=
EXTT18=
EXTT19=
EXTT20=
EXTT21=
PLAYORDER=
